<?xml version="1.0" encoding="UTF-8" standalone="no"?>
<!-- Created with Inkscape (http://www.inkscape.org/) -->

<svg
   xmlns:dc="http://purl.org/dc/elements/1.1/"
   xmlns:cc="http://creativecommons.org/ns#"
   xmlns:rdf="http://www.w3.org/1999/02/22-rdf-syntax-ns#"
   xmlns:svg="http://www.w3.org/2000/svg"
   xmlns="http://www.w3.org/2000/svg"
   xmlns:sodipodi="http://sodipodi.sourceforge.net/DTD/sodipodi-0.dtd"
   xmlns:inkscape="http://www.inkscape.org/namespaces/inkscape"
   width="16"
   height="16"
   id="svg2"
   version="1.1"
   inkscape:version="0.48.3.1 r9886"
   sodipodi:docname="Trailhead.svg">
  <defs
     id="defs4" />
  <sodipodi:namedview
     id="base"
     pagecolor="#ffffff"
     bordercolor="#666666"
     borderopacity="1.0"
     inkscape:pageopacity="0.0"
     inkscape:pageshadow="2"
     inkscape:zoom="15.909903"
     inkscape:cx="8"
     inkscape:cy="10.275302"
     inkscape:document-units="px"
     inkscape:current-layer="layer1"
     showgrid="true"
     inkscape:snap-global="true"
     inkscape:window-width="1100"
     inkscape:window-height="641"
     inkscape:window-x="172"
     inkscape:window-y="248"
     inkscape:window-maximized="0">
    <inkscape:grid
       type="xygrid"
       id="grid2993"
       empspacing="5"
       visible="true"
       enabled="true"
       snapvisiblegridlinesonly="true" />
  </sodipodi:namedview>
  <metadata
     id="metadata7">
    <rdf:RDF>
      <cc:Work
         rdf:about="">
        <dc:format>image/svg+xml</dc:format>
        <dc:type
           rdf:resource="http://purl.org/dc/dcmitype/StillImage" />
        <dc:title />
      </cc:Work>
    </rdf:RDF>
  </metadata>
  <g
     inkscape:label="Layer 1"
     inkscape:groupmode="layer"
     id="layer1"
     transform="translate(0,-1036.3622)">
    <rect
       style="fill:#fcffff;fill-opacity:1;stroke:#000000;stroke-width:1;stroke-linecap:round;stroke-linejoin:round;stroke-miterlimit:4;stroke-opacity:1;stroke-dasharray:none;stroke-dashoffset:0"
       id="rect2984"
       width="14.204989"
       height="6.851079"
       x="0.94280905"
       y="1.2293254"
       transform="translate(0,1036.3622)" />
    <path
       style="fill:none;stroke:#000000;stroke-width:1px;stroke-linecap:butt;stroke-linejoin:miter;stroke-opacity:1"
       d="m 8,8 0,8"
       id="path2986"
       inkscape:connector-curvature="0"
       transform="translate(0,1036.3622)" />
    <path
       style="fill:none;stroke:#000000;stroke-width:1px;stroke-linecap:butt;stroke-linejoin:miter;stroke-opacity:1"
       d="m 3,3 c 0.4777829,0.054462 0.3036578,0.05209 0.5198203,0.05209 0.041903,0 0.085056,-0.010163 0.1257079,0 0.04545,0.011362 0.081263,0.048039 0.1257079,0.062854 0.039752,0.013251 0.083805,0 0.1257078,0 0.1047566,0 0.2095131,0 0.3142697,0 0.3561723,0 0.7123446,0 1.0685169,0 0.1069369,0 0.2281054,-0.02331 0.3142697,0.062854 0.014815,0.014815 -0.018739,0.053484 0,0.062854 0.037479,0.018739 0.085955,-0.013251 0.1257078,0 0.028109,0.00937 0.036352,0.049603 0.062854,0.062854 0.018739,0.00937 0.041903,0 0.062854,0 0.020951,0.020951 0.036352,0.049603 0.062854,0.062854 0.018739,0.00937 0.044115,-0.00937 0.062854,0 0.026502,0.013251 0.034745,0.053484 0.062854,0.062854 0.059628,0.019876 0.1257079,0 0.1885618,0 0.1466592,0 0.2933184,0 0.4399775,0 0.1676105,0 0.335221,0 0.5028315,0 0.041903,0 0.083805,0 0.1257079,0 0.062854,0 0.1289333,0.019876 0.1885618,0 0.019876,-0.00663 -0.018739,-0.053484 0,-0.062854 0.037479,-0.018739 0.083805,0 0.1257079,0 0.020951,0 0.048039,0.014815 0.062854,0 0.014815,-0.014815 -0.014815,-0.048039 0,-0.062854 0.031427,-0.031427 0.1571348,0.031427 0.1885618,0 0.014815,-0.014815 -0.018739,-0.053484 0,-0.062854 0.037479,-0.018739 0.083805,0 0.1257079,0 0.1257078,0 0.2514157,0 0.3771236,0 0.041302,0 0.1530997,0.011821 0.1885618,0 0.044444,-0.014815 0.081263,-0.048039 0.1257079,-0.062854 0.019876,-0.00663 0.042978,0.00663 0.062854,0 0.044444,-0.014815 0.081263,-0.048039 0.1257079,-0.062854 0.019876,-0.00663 0.044114,0.00937 0.062854,0 0.026502,-0.013251 0.034745,-0.053484 0.062854,-0.062854 0.033791,-0.011264 0.1982004,0 0.2514158,0 0.1676105,0 0.3352209,0 0.5028314,0 0.2723675,0 0.5447345,0 0.8171015,0 0.04455,0 0.360873,0.00813 0.377124,0 0.0265,-0.013251 0.03635,-0.049603 0.06285,-0.062854 0.01874,-0.00937 0.04804,0.014815 0.06285,0 0.01482,-0.014815 -0.01481,-0.048039 0,-0.062854 0.01482,-0.014815 0.0419,0 0.06285,0 0.125708,0 0.251416,0 0.377124,0 0.104757,0 0.209513,0 0.31427,0 0.02095,0 0.04804,0.014815 0.06285,0 0.01481,-0.014815 -0.01481,-0.048039 0,-0.062854 0.02963,-0.02963 0.125707,0.041903 0.125707,0 0,-0.02963 -0.06285,-0.033224 -0.06285,-0.062854 0,-0.020951 0.0419,0 0.06285,0 0.02095,0 0.0419,0 0.06285,0 0.02095,0 0.0419,0 0.06285,0 0.02095,0 0.04412,-0.00937 0.06285,0 0.0265,0.013251 0.03635,0.049603 0.06285,0.062854 0.01874,0.00937 0.04804,-0.014815 0.06285,0 0.01482,0.014815 -0.01482,0.048039 0,0.062854 0.01482,0.014815 0.08327,-0.00471 0.06285,0 C 12.255791,2.9555261 12.127408,2.9754605 12,3"
       id="path3758"
       inkscape:connector-curvature="0"
       transform="translate(0,1036.3622)" />
    <path
       style="fill:none;stroke:#000000;stroke-width:1px;stroke-linecap:butt;stroke-linejoin:miter;stroke-opacity:1"
       d="M 4,6 C 4.00755,5.8763669 3.97665,5.7441051 4.022652,5.6291008 c 0.015562,-0.038906 0.083805,0 0.1257079,0 0.027074,0 0.3601151,-0.0085 0.3771236,0 0.026501,0.013251 0.036352,0.049603 0.062854,0.062854 0.019129,0.00956 0.1602551,0 0.1885618,0 0.1676105,0 0.335221,0 0.5028315,0 0.041903,0 0.083805,0 0.1257079,0 0.041903,0 0.085056,0.010163 0.1257078,0 0.04545,-0.011363 0.079769,-0.053666 0.1257079,-0.062854 0.061633,-0.012327 0.1257079,0 0.1885618,0 0.1466592,0 0.2933184,0 0.4399775,0 0.1047566,0 0.2095132,0 0.3142697,0 0.062854,0 0.1289333,-0.019876 0.1885618,0 0.028109,0.00937 0.034745,0.053484 0.062854,0.062854 0.079505,0.026501 0.1701127,-0.020326 0.2514157,0 0.04545,0.011362 0.080258,0.051491 0.1257079,0.062854 0.085616,0.021404 0.3010836,-0.025347 0.3771236,0 0.028109,0.00937 0.034745,0.053484 0.062854,0.062854 0.039752,0.013251 0.083805,0 0.1257079,0 0.035082,0 0.2854974,-0.00959 0.3142696,0 0.028109,0.00937 0.034745,0.053484 0.062854,0.062854 0.039752,0.013251 0.083805,0 0.1257078,0 0.041903,0 0.083805,0 0.1257079,0 0.1466592,0 0.2933184,0 0.4399776,0 0.3142696,0 0.6285393,0 0.942809,0 0.1047565,0 0.2095128,0 0.3142688,0 0.0419,0 0.08823,0.018739 0.125708,0 0.01874,-0.00937 0,-0.041903 0,-0.062854 0.0419,-0.020951 0.08026,-0.051492 0.125708,-0.062854 0.0813,-0.020326 0.176458,0.037479 0.251416,0 0.01874,-0.00937 -0.01482,-0.048039 0,-0.062854 0.01482,-0.014815 0.04298,0.00663 0.06285,0 0.04444,-0.014815 0.08126,-0.048039 0.125708,-0.062854 0.03748,-0.012493 0.316226,0 0.377123,0 0.04372,0 0.29154,-0.011365 0.31427,0 0.053,0.026502 0.07271,0.099206 0.125708,0.1257079 0.01653,0.00826 0.218548,0 0.251416,0 0.0419,0 0.16761,0 0.125707,0 -0.21679,0 -0.144202,-0.0376 -0.0051,0.2451913"
       id="path3760"
       inkscape:connector-curvature="0"
       transform="translate(0,1036.3622)" />
  </g>
</svg>
